<?xml version="1.0" standalone="no"?>
<!DOCTYPE svg PUBLIC "-//W3C//DTD SVG 20010904//EN"
 "http://www.w3.org/TR/2001/REC-SVG-20010904/DTD/svg10.dtd">
<svg version="1.0" xmlns="http://www.w3.org/2000/svg"
 width="512.000000pt" height="512.000000pt" viewBox="0 0 512.000000 512.000000"
 preserveAspectRatio="xMidYMid meet">

<g transform="translate(0.000000,512.000000) scale(0.100000,-0.100000)"
fill="#000000" stroke="none">
<path d="M895 5033 c-317 -47 -596 -255 -730 -546 -60 -131 -79 -223 -79 -387
0 -165 20 -258 79 -388 80 -173 226 -334 388 -427 73 -43 86 -54 87 -76 0 -22
-5 -28 -32 -33 -49 -9 -154 -61 -224 -111 -128 -92 -224 -229 -276 -395 l-23
-75 0 -620 0 -620 27 -52 c37 -69 89 -120 155 -150 l53 -24 0 -445 0 -444
-120 0 -120 0 0 -80 0 -80 2480 0 2480 0 0 80 0 80 -80 0 -80 0 -2 1262 c-3
1259 -3 1263 -24 1318 -54 142 -137 250 -241 317 -46 29 -53 38 -53 66 0 28 7
36 52 62 80 46 226 197 286 294 103 169 148 350 139 561 -7 156 -31 253 -97
387 -128 260 -348 436 -636 510 -60 16 -118 18 -429 18 l-360 0 -50 -25 c-64
-32 -124 -92 -155 -155 -19 -40 -24 -66 -24 -135 -1 -74 3 -92 27 -137 36 -69
88 -120 154 -150 l53 -24 0 -145 c0 -162 1 -159 -82 -282 -88 -130 -97 -182
-50 -273 22 -43 38 -59 81 -81 31 -16 69 -28 91 -28 l37 0 5 -82 c3 -60 12
-97 29 -133 45 -95 143 -168 244 -182 l45 -6 0 -144 0 -145 -46 -52 c-26 -28
-67 -81 -92 -118 -25 -38 -46 -68 -48 -68 -1 0 -143 60 -315 134 l-312 134
-18 47 c-38 101 -104 166 -202 199 -125 42 -270 -7 -349 -118 l-30 -43 -187
-13 c-356 -25 -606 0 -847 84 -205 72 -239 97 -147 111 104 15 197 85 242 180
16 35 25 75 29 133 l5 82 37 0 c22 0 60 12 91 28 43 22 59 38 81 81 47 91 38
143 -50 273 -83 123 -82 120 -82 282 l0 145 53 24 c66 30 118 81 154 150 24
45 28 63 28 137 -1 77 -4 91 -34 148 -38 70 -69 100 -145 140 l-51 27 -380 1
c-209 1 -393 0 -410 -3z m775 -179 c107 -63 107 -205 0 -268 -33 -20 -55 -21
-420 -26 -377 -5 -386 -5 -432 -28 -60 -30 -120 -90 -150 -150 -18 -38 -24
-67 -26 -149 -2 -57 -7 -103 -11 -103 -23 0 -94 -79 -122 -135 -30 -61 -31
-69 -27 -152 5 -105 23 -145 103 -231 54 -59 55 -61 55 -121 0 -33 -3 -61 -6
-61 -3 0 -26 14 -52 32 -315 216 -424 637 -253 983 117 236 348 396 614 425
39 4 212 7 382 6 293 -1 312 -2 345 -22z m2560 12 c359 -64 623 -365 647 -737
16 -248 -71 -475 -243 -639 l-69 -65 -3 69 -3 68 56 59 c77 81 100 133 100
234 0 68 -4 89 -28 137 -16 34 -48 75 -77 100 l-48 43 -4 95 c-4 113 -28 170
-96 238 -54 55 -118 83 -199 90 -54 4 -63 7 -57 21 22 52 33 89 34 114 l0 27
-79 0 -79 0 -6 -36 c-9 -45 -71 -109 -116 -117 -18 -4 -113 -7 -212 -7 -202 0
-229 7 -275 67 -57 74 -32 182 52 230 39 22 47 23 335 22 202 0 319 -4 370
-13z m-2708 -633 c4 -189 3 -189 107 -343 56 -82 58 -91 35 -114 -12 -13 -38
-16 -119 -16 l-103 0 -4 -147 c-3 -163 -9 -181 -72 -226 -29 -21 -44 -22 -218
-25 l-188 -4 0 -79 0 -79 80 0 c80 0 80 0 80 -26 0 -17 -27 -63 -77 -130 -43
-57 -80 -104 -83 -104 -3 0 -40 47 -83 104 l-77 103 0 244 0 245 -70 69 c-77
76 -97 119 -86 179 9 47 48 92 107 122 l49 24 0 123 c0 108 3 127 23 162 13
22 40 49 62 62 39 22 47 23 337 23 l296 0 4 -167z m2785 151 c19 -9 46 -33 61
-52 26 -34 27 -42 30 -169 l4 -133 47 -25 c88 -44 126 -116 103 -193 -7 -24
-37 -62 -82 -107 l-70 -69 0 -226 0 -225 -86 -29 c-47 -16 -119 -49 -160 -72
l-74 -42 0 79 0 79 80 0 80 0 0 79 0 79 -188 4 c-187 3 -189 3 -224 30 -58 45
-68 77 -68 232 l0 136 -104 0 c-82 0 -108 3 -120 16 -23 23 -21 32 35 114 104
154 103 154 107 343 l4 167 295 0 c253 0 300 -2 330 -16z m-1423 -1378 c20
-15 41 -44 51 -70 l17 -45 -62 -111 -62 -111 -72 39 c-58 31 -75 45 -93 82
-48 93 -16 196 72 236 43 20 108 11 149 -20z m-2063 -156 c74 -98 136 -179
139 -179 3 0 63 78 134 174 l130 174 35 -15 c164 -70 357 -124 530 -148 61 -9
116 -16 121 -16 6 0 10 -65 10 -164 l0 -164 -37 -6 c-53 -9 -222 -26 -255 -26
l-28 0 0 80 0 80 -80 0 -80 0 0 -480 0 -480 -360 0 -360 0 0 480 0 480 -80 0
-80 0 0 -160 0 -160 -160 0 -160 0 0 103 c0 56 7 132 14 168 29 136 132 286
247 359 49 32 153 79 175 80 7 0 72 -81 145 -180z m3726 136 c67 -49 122 -126
150 -206 26 -80 24 -217 -6 -290 -28 -68 -249 -380 -294 -414 -90 -69 -211
-92 -307 -59 -31 10 -295 144 -587 298 l-532 280 36 65 c20 36 44 77 52 91
l16 26 555 -238 c305 -131 558 -235 561 -231 34 38 271 364 267 367 -3 3 -31
25 -64 49 l-58 44 -98 -131 c-54 -71 -99 -132 -101 -134 -4 -3 -237 94 -246
103 -8 8 72 115 136 179 97 98 224 178 358 226 76 27 96 24 162 -25z m-2064
-171 c4 -25 18 -67 32 -95 l25 -49 -43 -12 c-23 -6 -124 -33 -224 -60 -100
-27 -184 -49 -187 -49 -3 0 -6 65 -6 145 l0 145 93 1 c50 1 126 5 167 9 147
14 136 16 143 -35z m672 -498 l440 -232 3 -922 2 -923 -1000 0 -1000 0 0 1038
0 1038 143 12 c179 15 259 32 642 136 171 46 315 84 320 84 6 1 208 -103 450
-231z m1565 -367 l0 -270 -480 0 -480 0 0 155 c0 85 2 155 5 155 3 0 59 -27
125 -60 181 -91 283 -109 415 -75 135 36 225 107 339 268 38 53 71 97 73 97 1
0 3 -121 3 -270z m-4162 -177 c-3 -383 -3 -388 -25 -419 -36 -50 -71 -68 -134
-68 -45 -1 -63 4 -91 26 -68 52 -68 53 -68 472 l0 376 160 0 161 0 -3 -387z
m882 -893 l0 -640 -160 0 -160 0 0 383 0 383 70 69 70 69 -57 58 -57 58 -93
-92 -93 -93 0 -417 0 -418 -240 0 -240 0 0 444 0 443 44 17 c60 23 126 83 161
147 24 45 30 69 33 142 l4 87 359 0 359 0 0 -640z m3280 0 l0 -640 -240 0
-240 0 0 410 0 410 -45 90 -45 89 -70 -35 c-38 -20 -70 -37 -70 -40 0 -2 16
-36 35 -74 l35 -70 0 -390 0 -390 -160 0 -160 0 0 640 0 640 480 0 480 0 0
-640z"/>
</g>
</svg>
